# Blender 4.5.4 LTS
# www.blender.org
mtllib Level1.mtl
o Cube
v -1.000000 -9.102840 -16.132219
v -1.000000 -7.102840 -16.132219
v -1.000000 -9.102840 16.132219
v -1.000000 -7.102840 16.132219
v 1.000000 -9.102840 -16.132219
v 1.000000 -7.102840 -16.132219
v 1.000000 -9.102840 16.132219
v 1.000000 -7.102840 16.132219
v -1.000000 -9.102840 -6.300697
v -1.000000 -5.652437 -6.300697
v 1.000000 -9.102840 -6.300697
v 1.000000 -5.652437 -6.300697
v 1.000000 -2.938105 -11.384779
v 1.000000 -2.938105 -16.132219
v -1.000000 -2.938105 -16.132219
v -1.000000 -2.938105 -11.384779
v 1.000000 8.946838 -11.384779
v 1.000000 8.946838 -16.132219
v -1.000000 8.946838 -16.132219
v -1.000000 8.946838 -11.384779
v 1.000000 7.192627 -16.132219
v -1.000000 7.192627 -16.132219
v -1.000000 6.438030 -11.384779
v 1.000000 6.438030 -11.384779
v -1.000000 8.946838 13.785838
v 1.000000 8.946838 13.785838
v 1.000000 7.192627 16.027283
v -1.000000 7.192627 16.027283
v -1.000000 -1.003277 -16.132219
v -1.000000 -1.003277 -12.693925
v 1.000000 -1.003277 -16.132219
v 1.000000 -1.003277 -12.693925
v 1.000000 4.841695 -16.132219
v 1.000000 4.841695 -12.693925
v -1.000000 4.841695 -16.132219
v -1.000000 4.841695 -12.693925
v -1.000000 -5.652437 0.336380
v 1.000000 -9.102840 0.336380
v -1.000000 -9.102840 0.336379
v 1.000000 -5.652437 0.336379
v -1.000000 -4.086874 1.616718
v -1.000000 -4.086874 16.132219
v 1.000000 -4.086874 16.132219
v 1.000000 -4.086874 1.616717
v -1.000000 -1.435709 6.136124
v -1.000000 -1.435709 16.132219
v 1.000000 -1.435709 16.132219
v 1.000000 -1.435709 6.136123
v -1.000000 -7.102840 8.185895
v 1.000000 -9.102840 8.185895
v -1.000000 -9.102840 8.185895
v 1.000000 -7.102840 8.185895
v -1.000000 -4.086874 8.829988
v 1.000000 -4.086874 8.829988
v -1.000000 -3.601535 11.103539
v 1.000000 -3.601535 11.103539
v 1.000000 5.191426 10.482896
v 1.000000 4.992207 6.136123
v -1.000000 4.992207 6.136124
v -1.000000 5.191426 10.482896
v -1.000000 -7.102840 11.591943
v 1.000000 -9.102840 11.591943
v -1.000000 -4.086874 11.959956
v -1.000000 -3.601535 12.300669
v -1.000000 -9.102840 11.591943
v 1.000000 -7.102840 11.591943
v 1.000000 -4.086874 11.959956
v 1.000000 -3.601535 12.300669
v -1.000000 4.505755 12.300669
v -1.000000 4.505755 16.132219
v 1.000000 4.505755 16.132219
v 1.000000 4.505755 12.300669
v 1.000000 7.192627 9.532950
v 1.000000 8.946838 11.833629
v -1.000000 8.946838 11.833629
v -1.000000 7.192627 9.532950
v 1.000000 5.984331 11.516297
v 1.000000 5.984331 16.074472
v -1.000000 5.984331 16.074472
v -1.000000 5.984331 11.516297
v -1.000000 -9.102840 5.796430
v 1.000000 -7.102840 5.796430
v 1.000000 -4.086874 6.634201
v 1.000000 -2.942238 9.591412
v -1.000000 -7.102840 5.796430
v 1.000000 -9.102840 5.796430
v -1.000000 -4.086874 6.634202
v -1.000000 -2.942238 9.591413
v 1.000000 5.663931 9.591412
v -1.000000 5.663931 9.591413
v 1.000000 4.161780 6.136123
v -1.000000 4.161780 6.136124
v -1.000000 3.900930 11.103539
v 1.000000 3.900930 11.103539
v 1.000000 4.738407 9.591412
v -1.000000 4.738407 9.591413
v -1.000000 -9.102840 -1.278433
v 1.000000 -6.836086 -1.278433
v -1.000000 -6.836086 -1.278433
v 1.000000 -9.102840 -1.278433
v -1.000000 -9.102840 -4.805691
v 1.000000 -6.836086 -4.805691
v -1.000000 -6.836086 -4.805691
v 1.000000 -9.102840 -4.805691
v 1.000000 8.946838 -4.403837
v -1.000000 8.946838 -4.403837
v 1.000000 7.192627 -4.911008
v -1.000000 7.192627 -4.911008
v 1.000000 7.192627 4.227684
v -1.000000 7.192627 4.227684
v 1.000000 8.946838 3.743484
v -1.000000 8.946838 3.743484
v 1.000000 6.959885 6.158646
v -1.000000 6.959885 6.158646
v 1.000000 8.946838 6.688059
v -1.000000 8.946838 6.688059
vn -0.0000 1.0000 -0.0000
vn -0.0000 -0.0000 1.0000
vn 1.0000 -0.0000 -0.0000
vn -0.0000 -0.0000 -1.0000
vn -0.0000 -1.0000 -0.0000
vn -0.0000 0.7840 0.6207
vn -1.0000 -0.0000 -0.0000
vn -0.0000 0.8821 0.4710
vn -0.0000 -0.6341 0.7732
vn -0.0000 0.7875 0.6163
vn -0.0000 0.5604 0.8282
vn -0.0000 0.6331 -0.7741
vn -0.0000 0.8625 -0.5060
vn -0.0000 0.9816 -0.1908
vn -0.0000 0.4334 0.9012
vn -0.0000 -0.9928 -0.1197
vn -0.0000 0.0390 0.9992
vn -0.0000 -0.9976 0.0688
vn -0.0000 -0.8540 -0.5203
vn -0.0000 -0.4686 -0.8834
vn -0.0000 0.8836 0.4683
vn -0.0000 0.8065 -0.5912
vn -0.0000 -0.9933 0.1158
vn -0.0000 -0.2661 -0.9640
vn -0.0000 -0.2777 0.9607
vt 0.875000 0.673821
vt 0.625000 0.673821
vt 0.375000 0.250000
vt 0.625000 0.250000
vt 0.625000 0.500000
vt 0.375000 0.500000
vt 0.375000 0.673821
vt 0.625000 0.750000
vt 0.375000 0.750000
vt 0.625000 1.000000
vt 0.375000 1.000000
vt 0.125000 0.673821
vt 0.125000 0.750000
vt 0.625000 0.662237
vt 0.875000 0.662237
vt 0.125000 0.662237
vt 0.375000 0.662237
vt 0.375000 0.000000
vt 0.625000 0.000000
vt 0.625000 0.076179
vt 0.375000 0.076179
vt 0.875000 0.750000
vt 0.625000 0.611474
vt 0.625000 0.535180
vt 0.625000 0.595653
vt 0.375000 0.580087
vt 0.625000 0.580087
vt 0.625000 0.622394
vt 0.375000 0.622394
vt 0.125000 0.580087
vt 0.125000 0.622394
vt 0.875000 0.622394
vt 0.375000 0.115094
vt 0.625000 0.115094
vt 0.625000 0.127606
vt 0.375000 0.127606
vt 0.625000 0.169913
vt 0.625000 0.169913
vt 0.625000 0.622394
vt 0.625000 0.535180
vt 0.625000 0.561572
vt 0.625000 0.561572
vt 0.625000 0.580087
vt 0.875000 0.535180
vt 0.875000 0.561572
vt 0.625000 0.561572
vt 0.375000 0.561572
vt 0.375000 0.535180
vt 0.625000 0.076179
vt 0.625000 0.214820
vt 0.625000 0.188428
vt 0.625000 0.188428
vt 0.625000 0.214820
vt 0.125000 0.535180
vt 0.125000 0.561572
vt 0.625000 0.580087
vt 0.875000 0.580087
vt 0.625000 0.561572
vt 0.875000 0.561572
vt 0.125000 0.500000
vt 0.375000 0.214820
vt 0.375000 0.188428
vt 0.375000 0.169913
vt 0.625000 0.188428
vt 0.762574 0.483227
vt 0.625000 0.138526
vt 0.762574 0.467406
vt 0.625000 0.188428
vt 0.125000 0.634906
vt 0.375000 0.634906
vt 0.625000 0.634906
vt 0.875000 0.634906
vt 0.625000 0.087763
vt 0.375000 0.087763
s 0
f 112/1/1 116/1/1 115/2/1 111/2/1
f 3/3/2 7/6/2 8/5/2 4/4/2
f 11/7/3 5/9/3 6/8/3 12/2/3
f 5/9/4 1/11/4 2/10/4 6/8/4
f 9/12/5 1/13/5 5/9/5 11/7/5
f 6/8/3 14/8/3 13/2/3 12/2/3
f 102/14/6 12/2/6 10/1/6 103/15/6
f 101/16/5 9/12/5 11/7/5 104/17/5
f 104/17/3 11/7/3 12/2/3 102/14/3
f 1/18/7 9/21/7 10/20/7 2/19/7
f 22/10/4 19/10/4 18/8/4 21/8/4
f 10/20/7 16/20/7 15/19/7 2/19/7
f 2/10/4 15/10/4 14/8/4 6/8/4
f 12/2/8 13/2/8 16/1/8 10/1/8
f 17/2/1 18/8/1 19/22/1 20/1/1
f 23/20/7 20/20/7 19/19/7 22/19/7
f 21/8/3 18/8/3 17/2/3 24/2/3
f 74/2/3 26/2/3 27/2/3 73/2/3
f 34/2/9 24/2/9 23/1/9 36/1/9
f 33/8/3 21/8/3 24/2/3 34/2/3
f 36/20/7 23/20/7 22/19/7 35/19/7
f 35/10/4 22/10/4 21/8/4 33/8/4
f 27/2/10 26/2/10 25/1/10 28/1/10
f 75/1/1 25/1/1 26/2/1 74/2/1
f 77/23/3 78/25/3 71/5/3 72/24/3
f 76/20/7 28/20/7 25/20/7 75/20/7
f 15/10/4 29/10/4 31/8/4 14/8/4
f 16/20/7 30/20/7 29/19/7 15/19/7
f 14/8/3 31/8/3 32/2/3 13/2/3
f 13/2/11 32/2/11 30/1/11 16/1/11
f 29/10/4 35/10/4 33/8/4 31/8/4
f 30/20/7 36/20/7 35/19/7 29/19/7
f 31/8/3 33/8/3 34/2/3 32/2/3
f 32/2/2 34/2/2 36/1/2 30/1/2
f 86/26/3 38/29/3 40/28/3 82/27/3
f 81/30/5 39/31/5 38/29/5 86/26/5
f 37/32/12 41/32/12 44/28/12 40/28/12
f 97/33/7 39/36/7 37/35/7 99/34/7
f 87/37/7 88/38/7 45/35/7 41/35/7
f 85/37/7 87/37/7 41/35/7 37/35/7
f 8/5/2 43/5/2 42/4/2 4/4/2
f 92/32/4 59/32/4 58/28/4 91/39/4
f 41/32/13 45/32/13 48/28/13 44/28/13
f 43/5/2 47/5/2 46/4/2 42/4/2
f 67/40/3 68/24/3 47/5/3 43/5/3
f 83/27/3 84/43/3 56/42/3 54/41/3
f 68/24/1 56/42/1 55/45/1 64/44/1
f 66/24/3 8/5/3 7/6/3 62/48/3 50/47/3 86/26/3 82/27/3 52/46/3
f 110/20/7 114/20/7 116/20/7 112/49/7
f 63/50/7 64/53/7 55/52/7 53/51/7
f 65/54/5 51/55/5 50/47/5 62/48/5
f 111/2/3 115/2/3 113/2/3 109/2/3
f 89/56/14 58/28/14 59/32/14 90/57/14
f 96/37/7 90/37/7 59/35/7 92/35/7
f 94/58/15 57/42/15 60/45/15 93/59/15
f 95/56/3 89/56/3 57/42/3 94/58/3
f 3/60/5 65/54/5 62/48/5 7/6/5
f 42/4/7 46/4/7 64/53/7 63/50/7
f 61/53/7 49/64/7 85/37/7 81/63/7 51/62/7 65/61/7 3/3/7 4/4/7
f 47/5/2 71/5/2 70/4/2 46/4/2
f 54/41/3 56/42/3 68/24/3 67/40/3
f 109/2/16 113/2/16 114/1/16 110/1/16
f 78/25/17 79/65/17 70/4/17 71/5/17
f 68/24/3 72/24/3 71/5/3 47/5/3
f 46/4/7 70/4/7 69/53/7 64/53/7
f 64/44/4 69/44/4 72/24/4 68/24/4
f 114/20/7 76/20/7 75/20/7 116/20/7
f 113/2/18 73/2/18 76/1/18 114/1/18
f 116/1/1 75/1/1 74/2/1 115/2/1
f 115/2/3 74/2/3 73/2/3 113/2/3
f 79/65/7 80/66/7 69/53/7 70/4/7
f 77/23/19 80/67/19 76/1/19 73/2/19
f 72/24/20 69/53/20 80/67/20 77/23/20
f 28/1/7 76/20/7 80/66/7 79/65/7
f 27/2/17 28/1/17 79/65/17 78/25/17
f 73/2/3 27/2/3 78/25/3 77/23/3
f 91/39/3 58/28/3 89/56/3 95/56/3
f 93/68/7 60/52/7 90/37/7 96/37/7
f 57/42/21 89/56/21 90/57/21 60/45/21
f 39/36/7 81/63/7 85/37/7 37/35/7
f 40/28/3 44/28/3 83/27/3 82/27/3
f 44/28/3 48/28/3 84/43/3 83/27/3
f 53/51/7 55/52/7 88/38/7 87/37/7
f 51/55/5 81/30/5 86/26/5 50/47/5
f 55/52/7 93/68/7 96/37/7 88/38/7
f 48/28/3 91/39/3 95/56/3 84/43/3
f 84/43/3 95/56/3 94/58/3 56/42/3
f 56/42/2 94/58/2 93/59/2 55/45/2
f 88/38/7 96/37/7 92/35/7 45/35/7
f 45/32/4 92/32/4 91/39/4 48/28/4
f 97/69/4 99/72/4 98/71/4 100/70/4
f 38/29/3 100/70/3 98/71/3 40/28/3
f 39/31/5 97/69/5 100/70/5 38/29/5
f 40/28/22 98/71/22 99/72/22 37/32/22
f 9/21/7 101/74/7 103/73/7 10/20/7
f 101/16/2 104/17/2 102/14/2 103/15/2
f 17/2/3 105/2/3 107/2/3 24/2/3
f 20/1/1 106/1/1 105/2/1 17/2/1
f 24/2/23 107/2/23 108/1/23 23/1/23
f 23/20/7 108/20/7 106/20/7 20/20/7
f 109/2/24 110/1/24 112/49/24 111/2/24
f 107/2/25 105/2/25 106/20/25 108/1/25
f 66/24/3 52/46/3 82/27/3 83/27/3 54/41/3 67/40/3 43/5/3 8/5/3
f 61/53/7 4/4/7 42/4/7 63/50/7 53/51/7 87/37/7 85/37/7 49/64/7
